<?xml version="1.0" encoding="UTF-8" standalone="no"?>
<!-- Created with Inkscape (http://www.inkscape.org/) -->

<svg
   width="30.01326mm"
   height="19.013601mm"
   viewBox="0 0 30.01326 19.013601"
   version="1.1"
   id="svg1"
   xml:space="preserve"
   inkscape:export-filename="bitmap.png"
   inkscape:export-xdpi="96"
   inkscape:export-ydpi="96"
   xmlns:inkscape="http://www.inkscape.org/namespaces/inkscape"
   xmlns:sodipodi="http://sodipodi.sourceforge.net/DTD/sodipodi-0.dtd"
   xmlns="http://www.w3.org/2000/svg"
   xmlns:svg="http://www.w3.org/2000/svg"><sodipodi:namedview
     id="namedview1"
     pagecolor="#ffffff"
     bordercolor="#000000"
     borderopacity="0.25"
     inkscape:showpageshadow="2"
     inkscape:pageopacity="0.0"
     inkscape:pagecheckerboard="0"
     inkscape:deskcolor="#d1d1d1"
     inkscape:document-units="mm" /><defs
     id="defs1" /><g
     inkscape:label="Layer 1"
     inkscape:groupmode="layer"
     id="layer1"
     transform="translate(-103.64608,-119.57221)"><path
       style="fill:#f9f9f9"
       d="m 124.17775,133.60748 v -4.97827 l 2.86808,0.0142 2.86809,0.0142 0.42333,0.11486 c 0.48968,0.13287 1.11122,0.42038 1.4793,0.68431 0.3277,0.23497 0.84574,0.7719 1.07982,1.11919 0.56217,0.83406 0.76213,1.6342 0.76297,3.05303 6.5e-4,1.10762 -0.10886,1.73326 -0.41935,2.39583 -0.57741,1.23217 -1.57171,2.05953 -2.92502,2.43392 -0.35751,0.0989 -0.36843,0.0993 -3.24797,0.11316 l -2.88925,0.0139 z m 5.6461,3.64329 c 0.64873,-0.12413 1.16482,-0.39988 1.63458,-0.87339 0.74732,-0.75328 0.97169,-1.50773 0.91812,-3.08714 -0.0192,-0.56645 -0.0461,-0.81557 -0.11446,-1.05833 -0.25482,-0.90574 -0.82219,-1.59879 -1.62851,-1.98924 -0.65363,-0.31652 -0.59579,-0.31023 -3.01625,-0.32804 l -2.16958,-0.016 v 3.70662 3.70662 h 2.02828 c 1.59237,0 2.09695,-0.0131 2.34782,-0.0611 z m -3.06377,-3.62186 v -2.413 h 1.33142 c 0.82529,0 1.41669,0.0181 1.55575,0.0476 0.74008,0.15716 1.35566,0.81397 1.41916,1.51423 l 0.0234,0.25847 h -0.64088 c -0.58208,0 -0.64089,-0.007 -0.64103,-0.0741 -2.9e-4,-0.13331 -0.16799,-0.35308 -0.31691,-0.4153 -0.10574,-0.0442 -0.32701,-0.061 -0.8041,-0.061 h -0.65822 l 0.0113,1.13241 0.0113,1.13242 0.64432,0.0117 c 0.49152,0.009 0.67954,-0.003 0.79282,-0.0504 0.15114,-0.0632 0.31925,-0.28222 0.31954,-0.41639 1.4e-4,-0.0673 0.0589,-0.0741 0.64103,-0.0741 h 0.64088 l -0.0226,0.24921 c -0.0465,0.51267 -0.45143,1.1006 -0.92243,1.33927 -0.41942,0.21254 -0.58933,0.23186 -2.03896,0.23186 h -1.34578 z m -5.16466,-0.4445 v -4.55084 h 0.635 0.635 v 4.55084 4.55083 h -0.635 -0.635 z m -2.54,-0.42334 v -4.1275 h 0.635 0.635 v 4.1275 4.1275 h -0.635 -0.635 z m -2.58234,-0.4445 v -3.683 h 0.635 0.635 v 3.683 3.683 h -0.635 -0.635 z m -2.58233,-0.42333 v -3.25967 h 0.635 0.635 v 3.25967 3.25967 h -0.635 -0.635 z m -2.54,-0.42333 v -2.83634 h 0.635 0.635 v 2.83634 2.83633 h -0.635 -0.635 z m -2.58233,-0.42334 v -2.413 h 0.635 0.635 v 2.413 2.413 h -0.635 -0.635 z m -2.54,-0.42333 v -1.98967 h 0.635 0.635 v 1.98967 1.98967 h -0.635 -0.635 z m -2.58234,-0.4445 v -1.54517 h 0.635 0.635 v 1.54517 1.54517 h -0.635 -0.635 z m 0.73374,-2.93363 c -0.43193,-0.15367 -0.67078,-0.43503 -0.71947,-0.84752 -0.0508,-0.43062 0.19718,-0.83395 0.63229,-1.02824 0.18758,-0.0838 0.29218,-0.099 0.68694,-0.10004 0.52428,-0.001 0.80229,0.0699 1.02907,0.26404 l 0.13521,0.11572 -0.18609,0.21167 c -0.17818,0.20267 -0.1895,0.20858 -0.26619,0.1392 -0.14695,-0.13296 -0.38463,-0.2027 -0.69083,-0.2027 -0.51001,0 -0.71967,0.14905 -0.71967,0.51165 0,0.33074 0.23016,0.48378 0.71967,0.4785 0.31786,-0.003 0.50277,-0.0568 0.65268,-0.18844 l 0.14288,-0.12544 0.17928,0.21413 0.17928,0.21414 -0.0944,0.10047 c -0.0519,0.0553 -0.19253,0.14389 -0.31248,0.19695 -0.3052,0.135 -1.04772,0.15991 -1.36818,0.0459 z m 17.89293,-0.45254 c -0.38418,-0.28921 -0.71279,-0.52669 -0.73025,-0.52775 -0.0175,-0.001 -0.0318,0.22669 -0.0318,0.50609 v 0.508 h -0.29633 -0.29634 v -1.016 -1.016 h 0.10964 c 0.0739,0 0.35331,0.17899 0.85725,0.54914 l 0.74761,0.54915 0.0118,-0.52798 0.0118,-0.52798 h 0.29507 0.29507 v 1.016 1.016 l -0.13759,-0.001 c -0.10925,-0.001 -0.28139,-0.10968 -0.83608,-0.52725 z m -15.38174,0.36883 c 1.16891,-1.75562 1.28534,-1.9145 1.40165,-1.91272 0.10321,0.002 0.19116,0.11185 0.80188,1.00541 l 0.68597,1.00365 -0.32613,0.0129 -0.32613,0.0129 -0.127,-0.15047 -0.127,-0.15047 h -0.5998 -0.5998 l -0.0916,0.14817 -0.0916,0.14817 h -0.33937 -0.33937 z m 1.51234,-0.89881 -0.11227,-0.16965 -0.1,0.13554 c -0.055,0.0745 -0.1,0.15089 -0.1,0.16965 0,0.0188 0.0955,0.0341 0.21227,0.0341 h 0.21227 z m 2.27007,0.0185 v -0.99779 l 0.92075,0.0135 c 0.88329,0.013 0.928,0.0177 1.09913,0.11573 0.39948,0.22883 0.41305,0.80373 0.0247,1.04687 -0.0651,0.0408 -0.12552,0.0791 -0.13418,0.0851 -0.009,0.006 0.12974,0.16893 0.30756,0.36206 l 0.3233,0.35115 -0.37106,0.013 -0.37106,0.013 -0.3175,-0.34378 -0.3175,-0.34377 -0.27516,0.0133 -0.27517,0.0133 -0.0124,0.32808 -0.0124,0.32809 h -0.29455 -0.29455 z m 1.69801,-0.25983 c 0.0398,-0.0399 0.0391,-0.0655 -0.003,-0.11641 -0.0435,-0.0524 -0.15766,-0.0653 -0.57817,-0.0653 h -0.52399 v 0.13046 0.13045 l 0.52717,-0.014 c 0.33805,-0.009 0.54547,-0.0324 0.57818,-0.0652 z m 1.77332,0.25983 v -0.99779 l 0.92075,0.0135 c 0.8609,0.0127 0.93239,0.0198 1.09979,0.10921 0.22146,0.11833 0.30784,0.2781 0.30763,0.56898 -2.1e-4,0.29894 -0.1117,0.47803 -0.37138,0.59653 -0.16458,0.0751 -0.29919,0.094 -0.76087,0.10711 l -0.56092,0.0159 v 0.29218 0.29218 h -0.3175 -0.3175 z m 1.65378,-0.18903 c 0.0988,-0.0529 0.10788,-0.19114 0.0149,-0.22681 -0.0368,-0.0141 -0.28448,-0.0257 -0.55033,-0.0257 h -0.48337 v 0.14817 0.14817 h 0.46845 c 0.25765,0 0.5053,-0.0197 0.55033,-0.0438 z m 1.81755,0.19199 v -0.99483 h 1.03717 1.03717 v 0.27517 0.27516 h -0.74394 c -0.6857,0 -0.74283,0.006 -0.72974,0.0741 0.0125,0.065 0.0781,0.0756 0.53228,0.086 l 0.51806,0.0119 v 0.27387 0.27386 h -0.52916 c -0.50095,0 -0.52917,0.005 -0.52917,0.0847 0,0.0816 0.0282,0.0847 0.78317,0.0847 h 0.78316 v 0.27517 0.27517 h -1.0795 -1.0795 z m 7.62,0.27517 v -0.71967 h -0.4445 -0.4445 v -0.27516 -0.27517 h 1.18534 1.18533 v 0.27517 0.27516 h -0.4445 -0.4445 v 0.71967 0.71967 h -0.29633 -0.29634 z m 2.54,-0.27813 v -0.99779 l 0.92075,0.0135 c 0.80567,0.0119 0.94122,0.0237 1.0845,0.0948 0.21501,0.10672 0.32273,0.2886 0.32293,0.54524 1.9e-4,0.24799 -0.0848,0.42338 -0.25363,0.52308 -0.07,0.0413 -0.12721,0.0862 -0.12721,0.0997 0,0.0135 0.1354,0.17607 0.30089,0.36128 l 0.30089,0.33676 -0.37206,0.0123 -0.37206,0.0124 -0.31492,-0.34225 -0.31492,-0.34224 -0.28066,0.0124 -0.28066,0.0124 -0.0124,0.32808 -0.0124,0.32809 h -0.29455 -0.29456 z m 1.62708,-0.22882 c 0.12139,-0.0461 0.144,-0.14774 0.0416,-0.18702 -0.0368,-0.0141 -0.29401,-0.0257 -0.5715,-0.0257 -0.50034,0 -0.50454,8.2e-4 -0.50454,0.0988 0,0.0543 0.0127,0.11148 0.0282,0.127 0.044,0.044 0.88472,0.0331 1.00619,-0.0131 z m 2.52159,0.85248 v -0.37414 l -0.57077,-0.61011 -0.57077,-0.61011 0.38055,-0.0122 0.38055,-0.0122 0.34897,0.3627 0.34897,0.36271 0.3175,-0.36047 0.3175,-0.36048 0.37872,-6.4e-4 0.37872,-6.4e-4 -0.12799,0.13758 c -0.0704,0.0757 -0.32179,0.35334 -0.55864,0.61703 l -0.43064,0.47945 v 0.3778 0.37781 h -0.29634 -0.29633 z m -28.27867,-5.08291 v -2.12062 h 1.41262 c 1.53212,0 1.89675,0.0349 2.41909,0.23151 0.95372,0.35897 1.43736,1.19208 1.29099,2.22382 -0.1206,0.85014 -0.67504,1.40306 -1.66236,1.65783 -0.31651,0.0817 -0.49301,0.0918 -1.90459,0.10904 l -1.55575,0.019 z m 3.13853,0.8713 c 0.34217,-0.0826 0.50849,-0.19245 0.62154,-0.41056 0.0846,-0.1632 0.096,-0.23705 0.082,-0.53164 -0.013,-0.27447 -0.0358,-0.36971 -0.11557,-0.48168 -0.2145,-0.30124 -0.74594,-0.42504 -1.82461,-0.42504 h -0.63194 v 0.98026 0.98027 l 0.81492,-0.027 c 0.4482,-0.0148 0.92233,-0.0529 1.05361,-0.0846 z m 4.9324,1.11954 c 0.043,-0.067 0.69736,-1.04722 1.45407,-2.17821 l 1.37584,-2.05633 0.21166,-3.2e-4 0.21167,-3.2e-4 1.19253,1.74461 c 0.6559,0.95953 1.3271,1.93987 1.49157,2.17853 l 0.29903,0.43391 h -0.73035 -0.73034 l -0.22865,-0.33866 -0.22864,-0.33867 h -1.26259 -1.26259 l -0.22249,0.33771 -0.22248,0.33772 -0.71324,9.5e-4 -0.71324,9.5e-4 z m 3.4601,-1.79371 c -0.0904,-0.15451 -0.4087,-0.58198 -0.43283,-0.58132 -0.0154,4.2e-4 -0.0867,0.0909 -0.15832,0.20108 -0.0717,0.11018 -0.16433,0.25271 -0.20595,0.31674 l -0.0757,0.11642 h 0.45186 c 0.34979,0 0.44487,-0.012 0.4209,-0.0529 z m 6.83158,0.381 -0.0111,-1.53458 -0.92075,-0.0114 -0.92075,-0.0114 v -0.57068 -0.57067 h 2.49767 2.49767 v 0.57069 0.57069 l -0.94192,0.0114 -0.94192,0.0114 -0.0111,1.53458 -0.0111,1.53458 h -0.61278 -0.61277 z m 5.35112,1.4978 c 0.008,-0.0202 0.66181,-1.00176 1.45344,-2.18117 l 1.43933,-2.14439 0.20856,0.0116 0.20855,0.0116 1.47128,2.13783 c 0.80921,1.17581 1.47259,2.15212 1.4742,2.16958 0.002,0.0175 -0.31909,0.0317 -0.71266,0.0317 h -0.71557 l -0.22634,-0.33723 -0.22635,-0.33724 -1.27,-4.8e-4 -1.27,-4.7e-4 -0.22248,0.33771 -0.22249,0.33771 h -0.70179 c -0.38599,0 -0.69545,-0.0165 -0.68768,-0.0368 z m 3.33452,-2.14338 c -0.12072,-0.17463 -0.2314,-0.3169 -0.24595,-0.31616 -0.029,10e-4 -0.42863,0.56933 -0.42863,0.60906 0,0.0135 0.20117,0.0246 0.44703,0.0246 h 0.44704 z"
       id="path1" /></g></svg>
